<?xml version="1.0" encoding="UTF-8" standalone="no"?>
<!-- Created with Inkscape (http://www.inkscape.org/) -->

<svg
   width="111.61777mm"
   height="64.160805mm"
   viewBox="0 0 111.61778 64.160805"
   version="1.1"
   id="svg5"
   inkscape:version="1.3 (1:1.3+202307231459+0e150ed6c4)"
   sodipodi:docname="Reversal-block.svg"
   xmlns:inkscape="http://www.inkscape.org/namespaces/inkscape"
   xmlns:sodipodi="http://sodipodi.sourceforge.net/DTD/sodipodi-0.dtd"
   xmlns="http://www.w3.org/2000/svg"
   xmlns:svg="http://www.w3.org/2000/svg">
  <sodipodi:namedview
     id="namedview7"
     pagecolor="#ffffff"
     bordercolor="#666666"
     borderopacity="1.0"
     inkscape:pageshadow="2"
     inkscape:pageopacity="0.0"
     inkscape:pagecheckerboard="0"
     inkscape:document-units="mm"
     showgrid="false"
     inkscape:zoom="1.2810466"
     inkscape:cx="224.81618"
     inkscape:cy="113.57901"
     inkscape:window-width="1864"
     inkscape:window-height="1016"
     inkscape:window-x="56"
     inkscape:window-y="27"
     inkscape:window-maximized="1"
     inkscape:current-layer="layer1"
     inkscape:snap-global="false"
     fit-margin-top="0"
     fit-margin-left="0"
     fit-margin-right="0"
     fit-margin-bottom="0"
     inkscape:showpageshadow="2"
     inkscape:deskcolor="#d1d1d1" />
  <defs
     id="defs2">
    <marker
       style="overflow:visible"
       id="Arrow2Mstart"
       refX="0"
       refY="0"
       orient="auto"
       inkscape:stockid="Arrow2Mstart"
       inkscape:isstock="true">
      <path
         transform="scale(0.6)"
         d="M 8.7185878,4.0337352 -2.2072895,0.01601326 8.7185884,-4.0017078 c -1.7454984,2.3720609 -1.7354408,5.6174519 -6e-7,8.035443 z"
         style="fill:context-stroke;fill-rule:evenodd;stroke-width:0.625;stroke-linejoin:round"
         id="path6635" />
    </marker>
    <marker
       style="overflow:visible"
       id="Arrow2Mend"
       refX="0"
       refY="0"
       orient="auto"
       inkscape:stockid="Arrow2Mend"
       inkscape:isstock="true">
      <path
         transform="scale(-0.6)"
         d="M 8.7185878,4.0337352 -2.2072895,0.01601326 8.7185884,-4.0017078 c -1.7454984,2.3720609 -1.7354408,5.6174519 -6e-7,8.035443 z"
         style="fill:context-stroke;fill-rule:evenodd;stroke-width:0.625;stroke-linejoin:round"
         id="path6638" />
    </marker>
  </defs>
  <g
     inkscape:label="Layer 1"
     inkscape:groupmode="layer"
     id="layer1"
     transform="translate(-24.136285,-106.68874)">
    <g
       id="g834"
       transform="matrix(0.28222223,0,0,0.28222223,10.202401,106.74982)">
      <g
         inkscape:label="Layer 1"
         id="layer1-3"
         style="display:inline"
         transform="translate(-184.13054,-190.83615)" />
      <g
         id="layer2"
         inkscape:label="Layer 2"
         style="display:inline"
         transform="translate(-184.13054,-190.83615)" />
    </g>
    <g
       id="g842"
       transform="matrix(-0.28222223,0,0,0.28222223,197.65157,106.74982)">
      <g
         inkscape:label="Layer 1"
         id="g836"
         style="display:inline"
         transform="translate(-184.13054,-190.83615)" />
      <g
         id="g840"
         inkscape:label="Layer 2"
         style="display:inline"
         transform="translate(-184.13054,-190.83615)">
        <path
           id="path838"
           style="display:inline;opacity:1;fill:#008000;fill-opacity:1;stroke:#000000;stroke-width:1;stroke-linecap:round;stroke-linejoin:round;stroke-miterlimit:4;stroke-dasharray:none;stroke-dashoffset:0;stroke-opacity:1"
           d="m 582.50165,277.29323 c -8.01174,0.0428 -13.32458,-1.30536 -21.35295,-8.81412 v 2e-5 l -61.14709,-60.93784 c -10.68433,-10.45534 -25.03442,-16.2442 -39.95909,-16.20494 h -23.69016 v 26.18621 l 22.77653,0.0456 c 8.01174,-0.0428 15.70507,3.13284 21.46956,8.81038 l 61.4484,61.31435 c 10.71816,10.38367 25.06825,16.17257 39.99292,16.13927 -14.92467,-0.0333 -29.27476,5.75561 -39.99292,16.13928 l -61.4484,61.31434 c -5.76449,5.67753 -13.45782,8.8532 -21.46956,8.81038 l -22.77653,0.0456 v 26.18621 h 23.69016 c 14.92467,0.0392 29.46299,-5.90016 40.2038,-16.28023 l 60.90238,-60.86255 c 5.64787,-5.68127 13.34121,-8.85693 21.34706,-8.80954 l 17.83774,-0.11399 14.96841,0.11399 c 8.00585,-0.0474 15.69919,3.12827 21.34706,8.80954 l 60.90238,60.86255 c 10.74081,10.38007 25.27913,16.31943 40.2038,16.28023 h 25.52222 v -26.18621 l -24.60859,-0.0456 c -8.01174,0.0428 -15.70507,-3.13285 -21.46956,-8.81038 l -61.4484,-61.31434 c -10.71816,-10.38367 -25.06825,-16.17258 -39.99292,-16.13928 14.92467,0.0333 29.27476,-5.7556 39.99292,-16.13927 l 61.4484,-61.31435 c 5.76449,-5.67754 13.45782,-8.85318 21.46956,-8.81038 l 24.60859,-0.0456 v -26.18621 h -25.52222 c -14.92467,-0.0393 -29.27476,5.7496 -39.95909,16.20494 l -61.14709,60.93784 v -2e-5 c 0,0 -5.45794,6.20553 -21.35295,8.81412 H 600.3335 Z"
           sodipodi:nodetypes="ccccccccccccccccccccccccccccccccccccccccccc" />
      </g>
    </g>
    <text
       xml:space="preserve"
       style="font-style:normal;font-weight:normal;font-size:10.5833px;line-height:1.25;font-family:sans-serif;letter-spacing:0px;word-spacing:0px;fill:#000000;fill-opacity:1;stroke:none;stroke-width:0.264583"
       x="23.438656"
       y="114.84996"
       id="text2571"><tspan
         sodipodi:role="line"
         id="tspan2569"
         style="stroke-width:0.264583"
         x="23.438656"
         y="114.84996">N</tspan></text>
    <text
       xml:space="preserve"
       style="font-style:normal;font-weight:normal;font-size:10.5833px;line-height:1.25;font-family:sans-serif;letter-spacing:0px;word-spacing:0px;fill:#000000;fill-opacity:1;stroke:none;stroke-width:0.264583"
       x="23.438656"
       y="170.10986"
       id="text3645"><tspan
         sodipodi:role="line"
         id="tspan3643"
         style="stroke-width:0.264583"
         x="23.438656"
         y="170.10986">0</tspan></text>
    <text
       xml:space="preserve"
       style="font-style:normal;font-weight:normal;font-size:10.5833px;line-height:1.25;font-family:sans-serif;letter-spacing:0px;word-spacing:0px;fill:#000000;fill-opacity:1;stroke:none;stroke-width:0.264583"
       x="128.87595"
       y="170.63235"
       id="text6181"><tspan
         sodipodi:role="line"
         id="tspan6179"
         style="stroke-width:0.264583"
         x="128.87595"
         y="170.63235">N</tspan></text>
    <text
       xml:space="preserve"
       style="font-style:normal;font-weight:normal;font-size:10.5833px;line-height:1.25;font-family:sans-serif;letter-spacing:0px;word-spacing:0px;fill:#000000;fill-opacity:1;stroke:none;stroke-width:0.264583"
       x="128.97141"
       y="114.7869"
       id="text6185"><tspan
         sodipodi:role="line"
         id="tspan6183"
         style="stroke-width:0.264583"
         x="128.97141"
         y="114.7869">0</tspan></text>
    <circle
       style="fill:#000000;stroke:#000000;stroke-width:0.79375;stroke-linecap:round"
       id="path6209"
       cx="26.945206"
       cy="127.53119"
       r="1.0262994" />
    <circle
       style="fill:#000000;stroke:#000000;stroke-width:0.79375;stroke-linecap:round"
       id="circle6313"
       cx="26.945206"
       cy="136.35645"
       r="1.0262994" />
    <circle
       style="fill:#000000;stroke:#000000;stroke-width:0.79375;stroke-linecap:round"
       id="circle6315"
       cx="26.945206"
       cy="146.04463"
       r="1.0262994" />
    <path
       style="fill:none;stroke:#000000;stroke-width:2.11667;stroke-linecap:round;stroke-linejoin:miter;stroke-miterlimit:4;stroke-dasharray:none;stroke-opacity:1;marker-start:url(#Arrow2Mstart)"
       d="m 72.497085,164.51399 c 0,0 15.314307,-9.9805 15.314307,-27.03583 0,-17.05534 -16.059122,-26.30215 -16.059122,-26.30215"
       id="path6514"
       sodipodi:nodetypes="csc" />
    <circle
       style="fill:#000000;stroke:#000000;stroke-width:0.79375;stroke-linecap:round"
       id="circle1781"
       cx="132.94339"
       cy="127.53119"
       r="1.0262994" />
    <circle
       style="fill:#000000;stroke:#000000;stroke-width:0.79375;stroke-linecap:round"
       id="circle1783"
       cx="132.94339"
       cy="136.35645"
       r="1.0262994" />
    <circle
       style="fill:#000000;stroke:#000000;stroke-width:0.79375;stroke-linecap:round"
       id="circle1785"
       cx="132.94339"
       cy="146.04463"
       r="1.0262994" />
    <rect
       style="fill:#ffffff;stroke:#000000;stroke-width:1.05833;stroke-linecap:square;stroke-linejoin:round;stroke-dasharray:none"
       id="rect1"
       width="20.782923"
       height="13.448616"
       x="33.873562"
       y="107.2179"
       rx="2.0664313"
       ry="1.1260898" />
    <rect
       style="fill:#ffffff;stroke:#000000;stroke-width:1.05833;stroke-linecap:square;stroke-linejoin:round;stroke-dasharray:none"
       id="rect2"
       width="20.782923"
       height="13.448616"
       x="33.873562"
       y="156.87177"
       rx="2.0664313"
       ry="1.1260898" />
    <rect
       style="fill:#ffffff;stroke:#000000;stroke-width:1.05833;stroke-linecap:square;stroke-linejoin:round;stroke-dasharray:none"
       id="rect3"
       width="20.782923"
       height="13.448616"
       x="106.6006"
       y="107.2179"
       rx="2.0664313"
       ry="1.1260898" />
    <rect
       style="fill:#ffffff;stroke:#000000;stroke-width:1.05833;stroke-linecap:square;stroke-linejoin:round;stroke-dasharray:none"
       id="rect4"
       width="20.782923"
       height="13.448616"
       x="106.6006"
       y="156.87177"
       rx="2.0664313"
       ry="1.1260898" />
  </g>
</svg>
